<svg xmlns="http://www.w3.org/2000/svg" xmlns:xlink="http://www.w3.org/1999/xlink" width="150" zoomAndPan="magnify" viewBox="0 0 112.5 37.5" height="50" preserveAspectRatio="xMidYMid meet" version="1.0"><defs><g/></defs><g fill="#545454" fill-opacity="1"><g transform="translate(19.519317, 27.878289)"><g><path d="M 1.542969 -15.675781 L 1.542969 0 L 3.875 0 L 3.875 -6.984375 L 4.503906 -6.984375 L 6.1875 0 L 8.523438 0 L 6.695312 -7.585938 C 7.296875 -7.945312 7.753906 -8.5 8.066406 -9.222656 C 8.355469 -9.945312 8.523438 -10.957031 8.523438 -12.207031 C 8.523438 -13.171875 8.429688 -14.015625 8.234375 -14.6875 C 8.042969 -15.363281 7.730469 -15.890625 7.34375 -16.300781 C 6.957031 -16.6875 6.476562 -16.976562 5.898438 -17.167969 C 5.320312 -17.335938 4.648438 -17.433594 3.875 -17.433594 L 0.964844 -17.433594 Z M 3.875 -8.402344 L 3.875 -15.988281 C 4.308594 -15.988281 4.671875 -15.867188 4.960938 -15.652344 C 5.25 -15.410156 5.464844 -15.121094 5.632812 -14.785156 C 5.777344 -14.421875 5.898438 -14.015625 5.972656 -13.582031 C 6.019531 -13.125 6.066406 -12.664062 6.066406 -12.207031 C 6.066406 -11.726562 6.019531 -11.246094 5.972656 -10.8125 C 5.898438 -10.355469 5.777344 -9.945312 5.632812 -9.609375 C 5.464844 -9.246094 5.25 -8.957031 4.960938 -8.742188 C 4.671875 -8.523438 4.308594 -8.402344 3.875 -8.402344 Z M 3.875 -8.402344 "/></g></g></g><g fill="#545454" fill-opacity="1"><g transform="translate(29.002235, 27.878289)"><g><path d="M 1.203125 -13.941406 L 1.203125 0 L 6.429688 0 L 6.429688 -1.15625 L 3.539062 -1.15625 L 3.539062 -7.5625 L 5.273438 -7.5625 L 5.851562 -8.714844 L 3.539062 -8.714844 L 3.539062 -12.785156 L 5.851562 -12.785156 L 6.429688 -13.941406 Z M 1.203125 -13.941406 "/></g></g></g><g fill="#545454" fill-opacity="1"><g transform="translate(36.150526, 27.878289)"><g><path d="M 5.371094 0 C 5.753906 0 6.140625 -0.046875 6.527344 -0.191406 L 6.527344 -1.902344 C 6.1875 -1.398438 5.804688 -1.15625 5.371094 -1.15625 C 4.886719 -1.15625 4.480469 -1.421875 4.140625 -2 C 3.996094 -2.191406 3.875 -2.480469 3.78125 -2.839844 C 3.683594 -3.179688 3.585938 -3.585938 3.515625 -4.019531 C 3.441406 -4.453125 3.394531 -4.9375 3.371094 -5.441406 C 3.324219 -5.921875 3.324219 -6.429688 3.324219 -6.957031 C 3.324219 -7.464844 3.324219 -7.96875 3.371094 -8.476562 C 3.394531 -8.980469 3.441406 -9.464844 3.515625 -9.898438 C 3.585938 -10.328125 3.683594 -10.738281 3.78125 -11.101562 C 3.875 -11.4375 3.996094 -11.726562 4.140625 -11.945312 C 4.503906 -12.496094 4.914062 -12.785156 5.371094 -12.785156 C 5.804688 -12.785156 6.1875 -12.519531 6.527344 -12.039062 L 6.527344 -13.773438 C 6.332031 -13.820312 6.164062 -13.84375 5.972656 -13.894531 C 5.777344 -13.917969 5.5625 -13.941406 5.371094 -13.941406 C 4.648438 -13.941406 3.996094 -13.820312 3.417969 -13.582031 C 2.839844 -13.339844 2.335938 -12.953125 1.949219 -12.425781 C 1.542969 -11.871094 1.226562 -11.148438 1.035156 -10.257812 C 0.820312 -9.367188 0.722656 -8.285156 0.722656 -6.984375 C 0.722656 -5.660156 0.820312 -4.550781 1.035156 -3.660156 C 1.226562 -2.769531 1.542969 -2.046875 1.949219 -1.515625 C 2.335938 -0.964844 2.839844 -0.578125 3.417969 -0.335938 C 3.996094 -0.0976562 4.648438 0 5.371094 0 Z M 5.371094 0 "/></g></g></g><g fill="#545454" fill-opacity="1"><g transform="translate(43.395092, 27.878289)"><g><path d="M 1.324219 -13.941406 L 1.324219 0 L 3.660156 0 L 3.660156 -13.941406 Z M 1.324219 -13.941406 "/></g></g></g><g fill="#545454" fill-opacity="1"><g transform="translate(48.377236, 27.878289)"><g><path d="M 1.542969 -12.207031 L 1.542969 0 L 3.875 0 L 3.875 -5.804688 C 4.550781 -5.804688 5.128906 -5.851562 5.632812 -5.996094 C 6.140625 -6.140625 6.574219 -6.355469 6.910156 -6.671875 C 7.246094 -6.984375 7.511719 -7.390625 7.679688 -7.921875 C 7.851562 -8.453125 7.945312 -9.101562 7.945312 -9.871094 C 7.945312 -10.644531 7.851562 -11.269531 7.679688 -11.800781 C 7.511719 -12.328125 7.246094 -12.738281 6.910156 -13.050781 C 6.574219 -13.363281 6.140625 -13.582031 5.632812 -13.726562 C 5.128906 -13.871094 4.550781 -13.941406 3.875 -13.941406 L 0.964844 -13.941406 Z M 3.875 -6.933594 L 3.875 -12.835938 C 4.261719 -12.808594 4.574219 -12.714844 4.816406 -12.546875 C 5.058594 -12.375 5.273438 -12.160156 5.417969 -11.871094 C 5.5625 -11.582031 5.660156 -11.269531 5.707031 -10.933594 C 5.753906 -10.59375 5.804688 -10.234375 5.804688 -9.871094 C 5.804688 -9.488281 5.753906 -9.125 5.707031 -8.789062 C 5.660156 -8.453125 5.5625 -8.140625 5.417969 -7.851562 C 5.273438 -7.5625 5.058594 -7.34375 4.816406 -7.175781 C 4.574219 -7.007812 4.261719 -6.933594 3.875 -6.933594 Z M 3.875 -6.933594 "/></g></g></g><g fill="#545454" fill-opacity="1"><g transform="translate(57.04183, 27.878289)"><g><path d="M 1.203125 -13.941406 L 1.203125 0 L 6.429688 0 L 6.429688 -1.15625 L 3.539062 -1.15625 L 3.539062 -7.5625 L 5.273438 -7.5625 L 5.851562 -8.714844 L 3.539062 -8.714844 L 3.539062 -12.785156 L 5.851562 -12.785156 L 6.429688 -13.941406 Z M 1.203125 -13.941406 "/></g></g></g><g fill="#545454" fill-opacity="1"><g transform="translate(64.190121, 27.878289)"><g><path d="M 3.105469 -15.675781 L 0.480469 0 L 1.636719 0 L 2.117188 -2.914062 L 5.226562 -2.914062 L 5.707031 0 L 8.042969 0 L 5.128906 -17.433594 L 2.816406 -17.433594 Z M 5.03125 -4.070312 L 2.3125 -4.070312 L 3.683594 -12.207031 Z M 5.03125 -4.070312 "/></g></g></g><g fill="#545454" fill-opacity="1"><g transform="translate(72.71031, 27.878289)"><g><path d="M 1.542969 -12.207031 L 1.542969 0 L 3.875 0 L 3.875 -5.804688 C 4.550781 -5.804688 5.128906 -5.851562 5.632812 -5.996094 C 6.140625 -6.140625 6.574219 -6.355469 6.910156 -6.671875 C 7.246094 -6.984375 7.511719 -7.390625 7.679688 -7.921875 C 7.851562 -8.453125 7.945312 -9.101562 7.945312 -9.871094 C 7.945312 -10.644531 7.851562 -11.269531 7.679688 -11.800781 C 7.511719 -12.328125 7.246094 -12.738281 6.910156 -13.050781 C 6.574219 -13.363281 6.140625 -13.582031 5.632812 -13.726562 C 5.128906 -13.871094 4.550781 -13.941406 3.875 -13.941406 L 0.964844 -13.941406 Z M 3.875 -6.933594 L 3.875 -12.835938 C 4.261719 -12.808594 4.574219 -12.714844 4.816406 -12.546875 C 5.058594 -12.375 5.273438 -12.160156 5.417969 -11.871094 C 5.5625 -11.582031 5.660156 -11.269531 5.707031 -10.933594 C 5.753906 -10.59375 5.804688 -10.234375 5.804688 -9.871094 C 5.804688 -9.488281 5.753906 -9.125 5.707031 -8.789062 C 5.660156 -8.453125 5.5625 -8.140625 5.417969 -7.851562 C 5.273438 -7.5625 5.058594 -7.34375 4.816406 -7.175781 C 4.574219 -7.007812 4.261719 -6.933594 3.875 -6.933594 Z M 3.875 -6.933594 "/></g></g></g><g fill="#545454" fill-opacity="1"><g transform="translate(81.374903, 27.878289)"><g><path d="M 1.542969 -12.207031 L 1.542969 0 L 3.875 0 L 3.875 -5.804688 C 4.550781 -5.804688 5.128906 -5.851562 5.632812 -5.996094 C 6.140625 -6.140625 6.574219 -6.355469 6.910156 -6.671875 C 7.246094 -6.984375 7.511719 -7.390625 7.679688 -7.921875 C 7.851562 -8.453125 7.945312 -9.101562 7.945312 -9.871094 C 7.945312 -10.644531 7.851562 -11.269531 7.679688 -11.800781 C 7.511719 -12.328125 7.246094 -12.738281 6.910156 -13.050781 C 6.574219 -13.363281 6.140625 -13.582031 5.632812 -13.726562 C 5.128906 -13.871094 4.550781 -13.941406 3.875 -13.941406 L 0.964844 -13.941406 Z M 3.875 -6.933594 L 3.875 -12.835938 C 4.261719 -12.808594 4.574219 -12.714844 4.816406 -12.546875 C 5.058594 -12.375 5.273438 -12.160156 5.417969 -11.871094 C 5.5625 -11.582031 5.660156 -11.269531 5.707031 -10.933594 C 5.753906 -10.59375 5.804688 -10.234375 5.804688 -9.871094 C 5.804688 -9.488281 5.753906 -9.125 5.707031 -8.789062 C 5.660156 -8.453125 5.5625 -8.140625 5.417969 -7.851562 C 5.273438 -7.5625 5.058594 -7.34375 4.816406 -7.175781 C 4.574219 -7.007812 4.261719 -6.933594 3.875 -6.933594 Z M 3.875 -6.933594 "/></g></g></g></svg>